<svg viewBox="0 0 142 16" fill="none" xmlns="http://www.w3.org/2000/svg"><g clip-path="url(#a)"><path d="M15.44 9.82h-4.46a2.65 2.65 0 0 1-1.85 2.38c-.34.11-.7.15-1.06.12-2.14 0-3.34-1.56-3.34-4.33v-.17c0-2.79 1.26-4.34 3.28-4.34a2.45 2.45 0 0 1 1.85.64c.5.47.78 1.11.77 1.79h4.61c-.37-4.06-3.19-5.9-7.25-5.9a7.66 7.66 0 0 0-7.46 4.76 7.48 7.48 0 0 0-.53 3.07v.17c0 4.7 2.7 7.84 8.16 7.84 4.04 0 6.97-2.07 7.28-6.03Zm8.59 5.77v-6.05h5.13v6.05h4.48v-15.35h-4.48v5.86h-5.13v-5.86h-4.5v15.34h4.5Zm28.45-6.29v-9.06h-4.53v8.87c0 2.3-.6 3.28-2.44 3.28-1.9 0-2.45-1.05-2.45-3.22v-8.93h-4.48v9.12c0 4.3 2.51 6.49 6.93 6.49 4.3 0 6.97-2.09 6.97-6.55m15.33 6.29v-3.41h-5.9v-11.94h-4.5v15.34h10.4Zm10.74-11.78 1.7 5.9h-3.43l1.73-5.9Zm-7.6 11.78h4.17l.83-2.85h5.18l.83 2.85h4.74l-4.96-15.34h-5.8l-5 15.34Zm23.81 0v-6.42l4.5 6.42h5.19l-6.03-8.22 5.73-7.13h-4.68l-4.7 6.08v-6.08h-4.5v15.34l4.5.01Zm28.02-7.68v-.17c0-4.77-3.51-7.71-8.28-7.71a7.85 7.85 0 0 0-7.66 4.72 7.65 7.65 0 0 0-.6 3.1v.17c0 4.6 3.15 7.83 8.2 7.83 5.04 0 8.34-3.22 8.34-7.94Zm-11.87.08v-.17c0-2.79 1.38-4.36 3.58-4.36s3.61 1.61 3.61 4.34v.17c.01 2.75-1.37 4.42-3.57 4.42-2.17 0-3.62-1.6-3.62-4.4Zm19.27 7.6h5.09l5.12-15.34h-4.2l-3.2 10.77-3.16-10.77h-4.82l5.17 15.34Z" fill="#0D1627"/></g><defs><clipPath id="a"><path fill="#fff" d="M0 0h141.4v15.85h-141.4z"/></clipPath></defs></svg>