<svg viewBox="0 0 93 27" fill="none" xmlns="http://www.w3.org/2000/svg"><path d="M36.6.03c3.1 0 4.62 1.66 4.62 4.07v12.9c0 2.46-1.52 4.08-4.61 4.08-2.1 0-3.54-.8-4.4-1.5v6.66h-3.63v-25.98h3.62v1.33a6.8 6.8 0 0 1 4.4-1.56Zm-16.22-.03c3.83 0 5.81 1.56 5.81 4.67v7.04h-8.69v4.83c0 1.23.74 1.83 2.27 1.83h.65c1.53 0 2.27-.6 2.27-1.83v-2.34h3.5v2.25c0 3.07-1.94 4.66-5.8 4.66h-.75c-3.83 0-5.8-1.55-5.8-4.3v-11.78c0-3.44 1.93-5.03 5.8-5.03h.74Zm29.57 0c3.83 0 5.8 1.56 5.8 4.67v16.18h-3.62v-1.3a6.88 6.88 0 0 1-4.4 1.53c-2.89 0-4.25-1.33-4.25-3.64v-3.74h-.08c0-2.55 1.03-3.57 3.79-4.34l4.86-1.32v-3.47c0-1.23-.74-1.89-2.27-1.89h-.57c-1.53 0-2.27.66-2.27 1.89v2.9h-3.5v-2.8c0-3.08 1.94-4.67 5.8-4.67h.7Zm24.67.03c2.8 0 4.24 1.4 4.24 3.64v17.21h-3.63v-16.61c0-1.03-.61-1.5-1.73-1.5-.98 0-2.05.3-3.33 1.04v17.04h-3.54v-16.58c0-1.03-.62-1.5-1.73-1.5-1 0-2.06.3-3.34 1.04v17.04h-3.62v-20.59h3.62v1.33a6.97 6.97 0 0 1 4.4-1.56c1.86 0 3.1.6 3.76 1.7a8.22 8.22 0 0 1 4.9-1.7Zm-65.36 5.93-6.05 4.63 6.05 4.57v3.87l-9.26-7.02v-2.78l9.26-7.08v3.8Zm83.47 3.27v2.78l-9.26 7.02v-3.87l6.05-4.57-6.05-4.67v-3.77l9.26 7.08Zm-43.98 2.35c-1.31.43-1.77.96-1.77 2.15v3.15c0 .99.62 1.49 1.77 1.49a6.91 6.91 0 0 0 3.3-1v-6.78l-3.3 1Zm-13.21-8.8c-1.2 0-2.35.4-3.34 1.06v13.43c.99.7 2.14 1.06 3.34 1.06 1.31 0 2.1-.5 2.1-1.69v-12.17c0-1.2-.74-1.7-2.1-1.7Zm-15.73-.03c-1.53 0-2.27.6-2.27 1.82v4.36h5.1v-4.36c0-1.23-.73-1.82-2.26-1.82h-.57Z" fill="#0D1627"/></svg>