<svg viewBox="0 0 85 32" fill="none" xmlns="http://www.w3.org/2000/svg"><g clip-path="url(#a)"><path fill-rule="evenodd" clip-rule="evenodd" d="M23.77 13.93c1.96-3.08 4.47-4.13 6.5-4.13 2.3 0 4.82 1.54 3.84 6.37l-2.93 14.9h-8.04l2.24-11.34c.28-1.54-.21-2.3-1.05-2.3-.84 0-1.75.62-2.03 2.3l-2.24 11.34h-8.04l2.24-11.34c.28-1.54-.2-2.3-1.05-2.3-.84 0-1.75.62-2.03 2.3l-2.23 11.34h-8.04l4.05-20.71h8.04l-.7 3.57h.35c1.96-3.08 4.48-4.13 6.5-4.13 1.9 0 3.92 1.05 4.06 4.13h.56Zm21.67-3.57h-8.04l-4.05 20.7h8.04l4.05-20.7Zm7.41 21.33c-3.5 0-7.13-1.04-9.5-3.28l3.63-5.32c4.05 2.8 7.62 2.38 7.62 1.4 0-.63-1.05-1.05-2.38-1.54-2.45-.9-5.87-2.17-5.87-6.15 0-4.62 4.96-7.07 9.02-7.07 3.14 0 5.73.98 8.25 2.8l-3.5 5.17c-3.77-2.58-6.92-2.1-6.92-.97 0 .35.77.63 1.82.97 2.51.91 6.64 2.31 6.64 6.58 0 3.64-3.29 7.41-8.81 7.41Zm27.2-21.89c-2.03 0-4.55 1.12-6.5 4.13h-.36l2.45-12.31h-8.04l-5.8 29.45h8.04l2.24-11.34c.34-1.68 1.18-2.3 2.02-2.3.84 0 1.33.76 1.05 2.3l-2.24 11.34h8.04l2.94-14.9c.98-4.83-1.54-6.37-3.84-6.37Zm-32.72-7.48c-.91-2.1-3.78-2.94-6.36-1.82-2.6 1.12-3.99 3.7-3.08 5.8.9 2.1 3.78 2.94 6.36 1.82 2.59-1.12 3.99-3.7 3.08-5.8Z" fill="#0D1627"/></g><defs><clipPath id="a"><path fill="#fff" d="M0 0h84.52v31.7h-84.52z"/></clipPath></defs></svg>