<svg viewBox="0 0 43 43" fill="none" xmlns="http://www.w3.org/2000/svg"><path d="M42.26 42.26h-42.26v-42.26h42.26v42.26Zm-8.6-13.22c-1.15 0-2.13.17-2.95.5-.8.3-1.47.87-1.9 1.62a5.86 5.86 0 0 0-.65 2.86v.22c.01 1.18.24 2.14.65 2.86.43.74 1.1 1.32 1.9 1.63.82.32 1.8.48 2.94.48.94.02 1.87-.09 2.77-.33a3.67 3.67 0 0 0 1.79-1.09c.48-.57.77-1.29.81-2.04h-2.37c-.05.36-.22.7-.48.96-.26.24-.59.4-.95.48-.52.1-1.04.15-1.57.14a5.1 5.1 0 0 1-1.66-.24 2.06 2.06 0 0 1-1.07-.81 2.96 2.96 0 0 1-.4-1.65v-1c0-.7.14-1.26.4-1.64.25-.39.63-.67 1.07-.82a7.3 7.3 0 0 1 3.23-.1 2 2 0 0 1 .95.48c.26.26.43.6.47.96h2.38a3.44 3.44 0 0 0-.81-2.04c-.49-.53-1.1-.9-1.8-1.1a9.89 9.89 0 0 0-2.76-.33Zm-5.5-23.85h4.24v7.84h2.38v-7.84h4.25v-1.97h-10.87v1.97Zm-24.9 7.81h2.37v-6.98l3.04 5.9h2.16l3.04-5.9v6.98h2.38v-9.75h-3.4l-3.1 6.45-3.1-6.45h-3.4v9.75Z" fill="#0D1627"/></svg>