<svg viewBox="0 0 121 33" fill="none" xmlns="http://www.w3.org/2000/svg"><path d="m95.57 9.81 4.46-3.3h-14.94v19.72h14.94v-3.29h-10.67v-5.03h9.12v-3.3h-9.12v-4.8h6.2Zm-21.75 4.39h-5.17v-4.39h8.27l4.46-3.3h-17v19.72h8.89c4.98 0 7.85-2.25 7.85-6.2 0-3.77-2.58-5.83-7.3-5.83Zm-.71 8.74h-4.46v-5.45h4.46c2.71 0 3.97.9 3.97 2.74 0 1.84-1.35 2.71-3.97 2.71Zm39.01-16.42h-8.1v19.71h4.26v-5.58h3.88c5.17 0 8.4-2.7 8.4-7.06 0-4.36-3.23-7.07-8.44-7.07Zm-.1 10.84h-3.77v-7.55h3.78c2.74 0 4.23 1.36 4.23 3.78s-1.49 3.77-4.23 3.77Zm-54.95 4.62c-1.13.6-2.39.93-3.68.93-3.85 0-6.63-2.74-6.63-6.52 0-3.77 2.78-6.52 6.63-6.52a6.45 6.45 0 0 1 3.88 1.23l3.07-2.26-.2-.2a10.15 10.15 0 0 0-6.88-2.38 11 11 0 0 0-7.56 2.8 9.7 9.7 0 0 0-2.98 7.2 10.18 10.18 0 0 0 2.98 7.33 10.72 10.72 0 0 0 7.53 2.9c3.07 0 5.75-1.06 7.56-3l-2.75-2.03-.97.52Zm-27.69-15.58c.78 1 1.42 2.09 1.97 3.25l-14.93 11-6.27-3.93v-4.71l6.24 3.9 12.99-9.52Zm-25.6 10c0-.23 0-.43.03-.65l-3.78-.2-.03.8c0 4.53 1.84 8.63 4.82 11.6l2.68-2.68a12.4 12.4 0 0 1-3.72-8.88Zm12.6-12.6c.23 0 .42 0 .65.04l.2-3.78-.82-.03c-4.52 0-8.63 1.84-11.6 4.81l2.68 2.68a12.49 12.49 0 0 1 8.9-3.71Zm.01 25.18c-.23 0-.42 0-.65-.04l-.2 3.78.82.03a16.4 16.4 0 0 0 11.6-4.8l-2.68-2.68a12.3 12.3 0 0 1-8.9 3.7Z" fill="#0D1627"/><path d="m23.5 6 3.2-2.35a16.43 16.43 0 0 0-10.32-3.65v3.78c2.66.03 5.11.83 7.12 2.22Zm9.3 10.4c0-1-.1-1.98-.25-2.94l-3.53 2.61v.32a12.5 12.5 0 0 1-4.17 9.33l2.56 2.8a16.3 16.3 0 0 0 5.4-12.13Zm-16.41 12.58c-3.72 0-7.05-1.62-9.34-4.17l-2.82 2.55a16.32 16.32 0 0 0 12.16 5.4v-3.78Zm-8.44-21.91-2.55-2.8c-3.33 3-5.4 7.32-5.4 12.12h3.78c0-3.68 1.62-7.03 4.17-9.32Z" fill="#0D1627"/></svg>