<svg viewBox="0 0 180 28" fill="none" xmlns="http://www.w3.org/2000/svg"><path fill-rule="evenodd" clip-rule="evenodd" d="M65.65 21.59a7.5 7.5 0 0 0 5.21-1.8 7.9 7.9 0 0 0 2.65-4.1c.45-1.61.36-2.98-.33-4.11-.7-1.14-2.08-1.73-4.22-1.73-2.15 0-3.87.6-5.2 1.73a8.18 8.18 0 0 0-2.65 4.1c-.46 1.68-.37 3.05.34 4.12.67 1.19 2.06 1.79 4.2 1.79Zm.8-2.86c-.65 0-1.12-.24-1.3-.84-.21-.53-.2-1.25.08-2.2.25-.9.63-1.61 1.15-2.2a2.37 2.37 0 0 1 1.77-.78c.66 0 1.13.24 1.33.77.2.6.17 1.31-.08 2.2a5.13 5.13 0 0 1-1.16 2.21c-.52.6-1.13.84-1.78.84Zm105.81-.57c-.6 0-.94-.24-1.1-.72-.23-.47-.24-1.07-.02-1.84a3.8 3.8 0 0 1 1.05-1.85c.44-.48.96-.66 1.52-.71 1.25 0 1.65.89 1.22 2.62a4.5 4.5 0 0 1-1 1.84 2.4 2.4 0 0 1-1.67.66Zm-3.75-8.04-4.18 14.83h4.29l1.38-4.88a2.41 2.41 0 0 0 2.33 1.43c1.31 0 2.62-.42 3.96-1.37a7.8 7.8 0 0 0 1.72-1.85c.48-.66.87-1.61 1.23-2.68.44-1.55.4-2.92-.11-4.05-.52-1.14-1.6-1.73-3.27-1.73-.66 0-1.3.18-2.04.47a4.8 4.8 0 0 0-1.9 1.5h-.07l.47-1.67h-3.81Zm-3.54 6.55c.57-2.03.57-3.7-.21-4.95-.72-1.25-2.15-1.9-4.17-1.9-1.73 0-3.31.53-4.75 1.6a7.8 7.8 0 0 0-3.03 4.41c-.5 1.79-.3 3.22.62 4.17.84 1.02 2.14 1.5 3.93 1.5 1.3 0 2.57-.25 3.85-.78a6.55 6.55 0 0 0 3.13-2.86h-4.11c-.2.3-.51.53-.86.71-.29.18-.66.24-1.02.24-.6 0-1.02-.18-1.32-.6-.3-.41-.34-.89-.16-1.54h8.1Zm-7.48-2.2c.35-1.26 1.2-1.91 2.52-1.97.52.06.95.23 1.14.6.26.35.36.83.21 1.36h-3.87Zm-14.54 6.77 2.24-7.92h-3.7l.9-3.22h11.68l-.9 3.22h-3.7l-2.23 7.92h-4.29Zm-2.02-6.9c.21-1.62-.1-2.8-1.04-3.52a6.2 6.2 0 0 0-3.58-1.02 7.89 7.89 0 0 0-7.81 5.96c-.53 1.85-.34 3.28.57 4.3.86.95 2.14 1.48 3.93 1.48 1.49 0 2.96-.36 4.23-1.07a6.81 6.81 0 0 0 1.78-1.43c.52-.6.9-1.31 1.26-2.15h-4.3a3 3 0 0 1-.79 1.14c-.34.35-.8.53-1.34.53-.66 0-1.07-.23-1.21-.77a3.45 3.45 0 0 1 .1-2.03c.08-.3.24-.65.4-1.01.16-.36.32-.72.52-1.01.2-.3.5-.54.8-.72.28-.18.62-.3 1.03-.3.48 0 .79.18.94.48.23.24.23.66.16 1.13h4.35Zm-20.83 4.7c-.96 0-1.35-.3-1.18-.9.1-.35.3-.65.6-.83.28-.18.55-.3.93-.36.33-.12.76-.18 1.14-.24l1.29-.35a4.14 4.14 0 0 1-.9 1.9c-.5.54-1.1.78-1.88.78Zm6.25 2.14.05-.18a.91.91 0 0 1-.28-.71c0-.18 0-.42.08-.72l1.46-5.18c.19-.66.35-1.25.4-1.85.1-.49 0-1-.25-1.43-.24-.41-.7-.71-1.4-.95a9.73 9.73 0 0 0-3-.36c-2.02 0-3.67.36-4.8.95a4.51 4.51 0 0 0-2.15 2.8h4.23c.25-.47.51-.77.86-.95.4-.12.65-.18.95-.18.3 0 .58.06.9.18.26.12.38.36.32.78-.2.47-.7.77-1.5.9l-1.25.17c-.5.06-.98.12-1.55.24-.48 0-1 .12-1.46.3a6 6 0 0 0-1.48.6 4.2 4.2 0 0 0-1.99 2.62c-.3 1.07-.12 1.9.5 2.44.56.6 1.38.83 2.4.83.83 0 1.56-.06 2.22-.3a8.28 8.28 0 0 0 2.19-1.19l-.1 1.2h4.65Zm-36.99.06 2.23-7.92h-3.75l.9-3.22h11.74l-.9 3.22h-3.76l-2.23 7.92h-4.23Zm-9.4-3.08c-.59 0-.94-.24-1.1-.72-.23-.47-.24-1.07-.02-1.84a3.8 3.8 0 0 1 1.06-1.85c.43-.48.95-.66 1.5-.71 1.26 0 1.66.89 1.24 2.62a4.5 4.5 0 0 1-1 1.84c-.55.48-1.08.66-1.67.66Zm-3.75-8.04-4.18 14.83h4.3l1.37-4.88a2.41 2.41 0 0 0 2.34 1.43c1.31 0 2.62-.42 3.96-1.37a7.8 7.8 0 0 0 1.71-1.85c.48-.66.87-1.61 1.23-2.68a5.9 5.9 0 0 0-.1-4.05c-.52-1.14-1.6-1.73-3.27-1.73-.66 0-1.3.18-2.04.47a4.9 4.9 0 0 0-1.91 1.5h-.06l.47-1.67h-3.82Zm-30.02 11.12h4.23l2.23-7.92h3.4l-2.24 7.92h4.3l3.13-11.14h-11.92l-3.13 11.14Zm.63-6.9c.22-1.62-.1-2.8-1.03-3.52a6.2 6.2 0 0 0-3.6-1.02 7.89 7.89 0 0 0-7.81 5.96c-.52 1.85-.32 3.28.58 4.3.87.95 2.15 1.48 3.93 1.48 1.5 0 2.96-.36 4.24-1.07a6.84 6.84 0 0 0 1.77-1.43c.53-.6.9-1.31 1.26-2.15h-4.29a3.1 3.1 0 0 1-.8 1.14c-.33.35-.8.53-1.34.53-.65 0-1.06-.23-1.21-.77a3.45 3.45 0 0 1 .1-2.03c.08-.3.24-.65.4-1.01.16-.36.32-.72.52-1.01.2-.3.51-.54.8-.72.29-.18.62-.3 1.04-.3.47 0 .78.18.93.48.24.24.24.66.16 1.13h4.35Zm55.74-7.7 2.93 13.64 10.68-13.73-8.51 5.98-5.1-5.89Zm-.88 3.47-3.17 11.1h5.5l-2.33-11.1Zm13.48 0-8.48 11.1h5.31l3.18-11.1Zm-81.74-5.82-10.37 11.76-23.05-11.67 21.79 4.6 11.63-4.7Z" fill="#0D1627"/><path fill-rule="evenodd" clip-rule="evenodd" d="m2.08 27.47 12.15-13.79 27.02 13.67-25.54-5.38-13.63 5.5Zm19.03-27.46a3.64 3.64 0 0 0 .59 7.25 3.64 3.64 0 0 0-.59-7.25Z" fill="#0D1627"/></svg>