<svg xmlns="http://www.w3.org/2000/svg"><style>:root svg:not(:target){display:none}</style><svg viewBox="0 0 11 8" fill="none" id="check"><path d="m3.75 7.94-3.75-3.75 1.2-1.19 2.55 2.56 5.56-5.56 1.2 1.19-6.76 6.75Z" fill="#fff"></path></svg><svg viewBox="0 0 29 29" fill="none" id="cursor"><path d="m6.95 5.15 19.27 9.22 1.08.51-1.13.4-8.64 3.06-4.55 7.9-.6 1.04-.32-1.14-5.82-20.41-.3-1.06 1 .48Z" fill="#1859FF" stroke="#1859FF"></path></svg><svg viewBox="0 0 26 26" fill="none" id="hand"><path d="M13.4 2.9c.87 0 1.61.53 1.93 1.29a2.1 2.1 0 0 1 3.16 1.81v1.1a2.1 2.1 0 0 1 3 1.9v8a6.1 6.1 0 0 1-6.1 6.1h-1a6.09 6.09 0 0 1-4.63-2.14l-.08-.07-5-4.7a2.47 2.47 0 0 1-.22-3.36 2.37 2.37 0 0 1 3.24-.4l.6.43v-5.86a2.1 2.1 0 0 1 3-1.9v-.1c0-1.16.94-2.1 2.1-2.1Zm0 1.2c-.5 0-.9.4-.9.9v7.1h-1.2v-5.1a.9.9 0 1 0-1.8 0v8.24l-.16-.12-2.35-1.73c-.5-.37-1.2-.29-1.6.2-.42.5-.38 1.27.1 1.72l5 4.7.11.1h.01a4.9 4.9 0 0 0 3.79 1.79h1c2.7 0 4.9-2.2 4.9-4.9v-8a.9.9 0 1 0-1.8 0v3.1h-1.2v-6.1a.9.9 0 0 0-1.8 0v6.1h-1.2v-7.1c0-.5-.4-.9-.9-.9Z" fill="#1859FF" stroke="#1859FF" stroke-width=".2"></path><path d="M13.4 4a1 1 0 0 0-1 1v7h-1v-5a1 1 0 0 0-2 0v8.04l-2.35-1.73c-.55-.4-1.3-.31-1.74.22-.45.54-.4 1.36.12 1.85l5 4.7.1.1a4.99 4.99 0 0 0 3.87 1.82h1a5 5 0 0 0 5-5v-8a1 1 0 0 0-2 0v3h-1v-6a1 1 0 0 0-2 0v6h-1v-7a1 1 0 0 0-1-1Z" fill="#fff"></path></svg></svg>