<svg xmlns="http://www.w3.org/2000/svg"><style>:root svg:not(:target){display:none}</style><svg viewBox="0 0 11 8" fill="none" id="check"><path d="m3.75 7.94-3.75-3.75 1.2-1.19 2.55 2.56 5.56-5.56 1.2 1.19-6.76 6.75Z" fill="#fff"></path></svg><svg viewBox="0 0 25 26" fill="none" id="cursor-yellow-mobile"><g filter="url(#cursor-yellow-mobile_0)"><path d="m8.3 20.57-5.14-18.04 17.04 8.15-7.8 2.76-4.1 7.13Z" fill="#D9F243"></path><path d="m3.35 2.13 17.05 8.15.95.46-1 .35-7.64 2.71-4.02 7-.53.9-.28-1-5.15-18.05-.27-.94.9.42Z" stroke="#D9F243" stroke-width=".884"></path></g><defs><filter id="cursor-yellow-mobile_0" x="0" y="0" width="24.269" height="25.489" filterUnits="userSpaceOnUse" color-interpolation-filters="sRGB"><feFlood flood-opacity="0" result="BackgroundImageFix"></feFlood><feColorMatrix in="SourceAlpha" values="0 0 0 0 0 0 0 0 0 0 0 0 0 0 0 0 0 0 127 0" result="hardAlpha"></feColorMatrix><feOffset dy=".884"></feOffset><feGaussianBlur stdDeviation=".884"></feGaussianBlur><feComposite in2="hardAlpha" operator="out"></feComposite><feColorMatrix values="0 0 0 0 0 0 0 0 0 0 0 0 0 0 0 0 0 0 0.08 0"></feColorMatrix><feBlend in2="BackgroundImageFix" result="effect1_dropShadow_11025_38"></feBlend><feBlend in="SourceGraphic" in2="effect1_dropShadow_11025_38" result="shape"></feBlend></filter></defs></svg><svg viewBox="0 0 28 29" fill="none" id="cursor-yellow"><g filter="url(#cursor-yellow_0)"><path d="m9.39 23.26-5.82-20.4 19.27 9.22-8.81 3.12-4.64 8.06Z" fill="#D9F243"></path><path d="m3.79 2.4 19.27 9.23 1.08.52-1.13.4-8.64 3.06-4.54 7.9-.6 1.03-.32-1.14-5.82-20.4-.3-1.07 1 .48Z" stroke="#D9F243"></path></g><defs><filter id="cursor-yellow_0" x="0" y="0" width="27.441" height="28.822" filterUnits="userSpaceOnUse" color-interpolation-filters="sRGB"><feFlood flood-opacity="0" result="BackgroundImageFix"></feFlood><feColorMatrix in="SourceAlpha" values="0 0 0 0 0 0 0 0 0 0 0 0 0 0 0 0 0 0 127 0" result="hardAlpha"></feColorMatrix><feOffset dy="1"></feOffset><feGaussianBlur stdDeviation="1"></feGaussianBlur><feComposite in2="hardAlpha" operator="out"></feComposite><feColorMatrix values="0 0 0 0 0 0 0 0 0 0 0 0 0 0 0 0 0 0 0.08 0"></feColorMatrix><feBlend in2="BackgroundImageFix" result="effect1_dropShadow_11025_932"></feBlend><feBlend in="SourceGraphic" in2="effect1_dropShadow_11025_932" result="shape"></feBlend></filter></defs></svg><svg viewBox="0 0 29 29" fill="none" id="cursor"><path d="m6.95 5.15 19.27 9.22 1.08.51-1.13.4-8.64 3.06-4.55 7.9-.6 1.04-.32-1.14-5.82-20.41-.3-1.06 1 .48Z" fill="#1859FF" stroke="#1859FF"></path></svg><svg viewBox="0 0 16 19" fill="none" id="hand-mobile"><path d="M8.49.09c.77 0 1.43.47 1.7 1.14a1.86 1.86 0 0 1 2.8 1.6v.97a1.85 1.85 0 0 1 2.66 1.68v7.08a5.4 5.4 0 0 1-5.4 5.4h-.88a5.38 5.38 0 0 1-4.1-1.9l-.07-.06-4.43-4.16a2.18 2.18 0 0 1-.19-2.97 2.1 2.1 0 0 1 2.87-.36l.53.39v-5.19a1.86 1.86 0 0 1 2.65-1.67v-.1c0-1.02.83-1.85 1.86-1.85Zm0 1.06a.8.8 0 0 0-.8.8v6.27h-1.06v-4.5a.8.8 0 0 0-1.6 0v7.28l-.13-.1-2.08-1.53a1.03 1.03 0 0 0-1.42.17c-.37.45-.33 1.12.1 1.52l4.42 4.16.1.08v.01c.8.97 2 1.58 3.35 1.58h.88c2.4 0 4.34-1.94 4.34-4.33v-7.08a.8.8 0 0 0-1.6 0v2.74h-1.06v-5.39a.8.8 0 0 0-1.59 0v5.4h-1.06v-6.28a.8.8 0 0 0-.8-.8Z" fill="#0039CC" stroke="#0039CC" stroke-width=".177"></path><path d="M8.49 1.06c-.5 0-.89.4-.89.89v6.19h-.88v-4.43a.88.88 0 0 0-1.77 0v7.12l-2.08-1.54a1.12 1.12 0 0 0-1.54.2c-.4.48-.35 1.2.1 1.64l4.43 4.16.1.08a4.4 4.4 0 0 0 3.41 1.6h.88a4.42 4.42 0 0 0 4.43-4.41v-7.08a.88.88 0 0 0-1.77 0v2.66h-.89v-5.31a.88.88 0 0 0-1.77 0v5.3h-.88v-6.18c0-.5-.4-.89-.88-.89Z" fill="#fff"></path></svg><svg viewBox="0 0 26 26" fill="none" id="hand"><path d="M13.4 2.9c.87 0 1.61.53 1.93 1.29a2.1 2.1 0 0 1 3.16 1.81v1.1a2.1 2.1 0 0 1 3 1.9v8a6.1 6.1 0 0 1-6.1 6.1h-1a6.09 6.09 0 0 1-4.63-2.14l-.08-.07-5-4.7a2.47 2.47 0 0 1-.22-3.36 2.37 2.37 0 0 1 3.24-.4l.6.43v-5.86a2.1 2.1 0 0 1 3-1.9v-.1c0-1.16.94-2.1 2.1-2.1Zm0 1.2c-.5 0-.9.4-.9.9v7.1h-1.2v-5.1a.9.9 0 1 0-1.8 0v8.24l-.16-.12-2.35-1.73c-.5-.37-1.2-.29-1.6.2-.42.5-.38 1.27.1 1.72l5 4.7.11.1h.01a4.9 4.9 0 0 0 3.79 1.79h1c2.7 0 4.9-2.2 4.9-4.9v-8a.9.9 0 1 0-1.8 0v3.1h-1.2v-6.1a.9.9 0 0 0-1.8 0v6.1h-1.2v-7.1c0-.5-.4-.9-.9-.9Z" fill="#1859FF" stroke="#1859FF" stroke-width=".2"></path><path d="M13.4 4a1 1 0 0 0-1 1v7h-1v-5a1 1 0 0 0-2 0v8.04l-2.35-1.73c-.55-.4-1.3-.31-1.74.22-.45.54-.4 1.36.12 1.85l5 4.7.1.1a4.99 4.99 0 0 0 3.87 1.82h1a5 5 0 0 0 5-5v-8a1 1 0 0 0-2 0v3h-1v-6a1 1 0 0 0-2 0v6h-1v-7a1 1 0 0 0-1-1Z" fill="#fff"></path></svg></svg>