<svg viewBox="0 0 160 41" fill="none" xmlns="http://www.w3.org/2000/svg"><path d="M20.88 0c9.08 0 13.62 0 16.44 2.82 2.83 2.82 2.83 7.37 2.83 16.45v1.6c0 9.09 0 13.63-2.83 16.45-2.82 2.83-7.36 2.83-16.44 2.83h-1.61c-9.08 0-13.63 0-16.45-2.83-2.82-2.82-2.82-7.36-2.82-16.44v-1.61c0-9.08 0-13.63 2.82-16.45 2.82-2.82 7.37-2.82 16.45-2.82h1.6Zm2.91 7.44a1.94 1.94 0 0 0-2.42 1.88v2.35l-4.9-1.22a1.94 1.94 0 0 0-2.42 1.88v2.36l-4.9-1.23a1.94 1.94 0 0 0-2.42 1.88v13.07c0 1.11.76 2.08 1.84 2.35l7.78 1.94a1.94 1.94 0 0 0 2.42-1.87v-2.36l4.9 1.22a1.94 1.94 0 0 0 2.42-1.87v-2.36l4.9 1.23c1.23.3 2.42-.62 2.42-1.88v-13.08c0-1.1-.76-2.07-1.84-2.34l-7.78-1.95Z" fill="#0D1627"/><path d="M20.99 29.03a.79.79 0 0 1-.6-.74l-.34-9.99a3.1 3.1 0 0 0-2.1-2.68.14.14 0 0 0-.15.06.12.12 0 0 0 .02.15c.26.2.95.84.95 1.94v10.7l2.22.56Zm7.32-3.02a.79.79 0 0 1-.6-.73l-.33-9.99a3.1 3.1 0 0 0-2.1-2.68.14.14 0 0 0-.16.06.12.12 0 0 0 .03.15c.25.2.95.84.95 1.94v10.7l2.21.55Zm34.95-2.95c3.04-.77 5.04-3.1 5.04-6.14 0-3.76-3.02-6.4-7.24-6.4h-7.53v20.24h3.47v-7.44h2.47l5.38 7.44h4.08l-5.67-7.7Zm-2.2-9.38c2.17 0 3.67 1.32 3.67 3.24 0 1.92-1.5 3.25-3.67 3.25h-4.06v-6.5h4.06Zm15.69 17.36a5.2 5.2 0 0 0 4.46-2.52l.67 2.24h2.49v-14.93h-3.33v8.64c0 2.13-1.42 3.62-3.36 3.62-1.91 0-3.24-1.5-3.24-3.62v-8.64h-3.33v9.01c0 3.6 2.43 6.2 5.64 6.2Zm18.25.01c3.84 0 7.03-2.19 7.03-5.8 0-4.05-3.33-5.23-6.2-6.2-2.23-.75-4.17-1.44-4.17-3.25 0-1.58 1.48-2.41 3.22-2.41 1.82 0 3.13.95 3.85 2.56l3.3-.55a7.3 7.3 0 0 0-7.27-5.17c-3.7 0-6.66 2.13-6.66 5.74 0 4.08 3.33 5.2 6.2 6.15 2.2.71 4.17 1.4 4.17 3.24 0 1.6-1.48 2.53-3.45 2.53-2.26 0-3.47-1.06-4.54-2.99l-3.36.58c.98 3.41 4.11 5.57 7.87 5.57Zm16.09-3.16c-1.13 0-1.68-.55-1.68-1.67v-7.52h4.49v-2.87h-4.49v-4.3h-2.49l-.84 4.3h-2.46v2.87h2.46v7.52c0 2.93 1.7 4.54 5 4.54h2.82l.29-2.87h-3.1Zm12.61 3.15c4.72 0 8.05-3.21 8.05-7.75 0-4.53-3.33-7.75-8.05-7.75-4.72 0-8.05 3.22-8.05 7.75 0 4.54 3.33 7.75 8.05 7.75Zm0-3c-2.72 0-4.57-1.93-4.57-4.75 0-2.8 1.85-4.73 4.57-4.73s4.58 1.92 4.58 4.73c0 2.82-1.86 4.74-4.58 4.74Zm14.27 2.72v-8.82c0-1.89.93-2.95 2.96-2.95h1.91l-.29-3.16h-.64c-1.76 0-3.12.49-4.14 2.15l-.63-2.15h-2.5v14.93h3.34Zm21.25-7.64c0-4.3-3.24-7.58-7.81-7.58-4.58 0-7.82 3.25-7.82 7.75 0 4.51 3.24 7.75 7.82 7.75 3.12 0 6.08-1.46 7.2-4.3l-3.12-.52a4.58 4.58 0 0 1-3.88 1.81c-2.55 0-4.23-1.55-4.55-3.85h12.1c.03-.31.06-.66.06-1.06Zm-7.81-4.7a4.29 4.29 0 0 1 4.2 3.18h-8.34a4.2 4.2 0 0 1 4.14-3.19Z" fill="#0D1627"/></svg>