<svg viewBox="0 0 46 43" fill="none" xmlns="http://www.w3.org/2000/svg"><path d="M31.14 35.56c0 3.4 2.47 4.13 3.71 4.07 4.1 0 5.13-2.95 5.13-4.42v-8.67h-3.18v-3.19h6.54v15.75h2.3v3h-5.3v-3c-1.14 2.83-4.37 3.42-5.84 3.36-5.24 0-6.55-3.66-6.55-5.49v-10.43h-2.83v-3.19h6.02v12.2Zm-27.6 6.54h-3.54v-3.18h3.54v3.18Zm9.02-14.86c3-3.53 4.07-3.89 5.84-3.89h3.18v5.66h-3.18v-2.83h-1.06c-1.24 0-4.6 1.98-4.6 4.96v7.78h8.13v3.18h-14.15v-3.18h3.19v-12.56h-3.19v-3h5.84v3.88Zm24.06-27.24c3.68 0 6.6 1.65 7.6 2.48v4.6h-3.53v-3.01c-.12-.41-1-1.24-3.54-1.24-3.18 0-6.54 1.77-6.54 6.9 0 5.13 3.71 6.55 6.01 6.55s3.9-.89 5.48-2.3l2.66 1.77c-1.06 1.23-4.07 3.71-7.61 3.71-4.42 0-10.08-3.19-10.08-9.73 0-6.55 4.95-9.73 9.55-9.73Zm-20.7 14.15 4.96-14.15h5.48v3.36h-3.19l-5.83 15.92h-3.19l-5.66-15.74h-3.18v-3.54h5.66l4.95 14.15Z" fill="#0D1627"/></svg>