<svg viewBox="0 0 95 34" fill="none" xmlns="http://www.w3.org/2000/svg"><path fill-rule="evenodd" clip-rule="evenodd" d="m6.4 0-1.6 4.39h22.2l1.6-4.39h-22.2Zm-2.4 6.58-1.6 4.39h22.2l1.6-4.39h-22.2Zm-2.4 6.58-1.6 4.39h22.2l1.6-4.39h-22.2Z" fill="#0D1627"/><mask id="a" style="mask-type:luminance" maskUnits="userSpaceOnUse" x="33" y="6" width="62" height="28"><path d="M33.3 33.54h60.77v-26.87h-60.76v26.87Z" fill="#fff"/></mask><g mask="url(#a)"><path fill-rule="evenodd" clip-rule="evenodd" d="M47.2 19.22v.1a9.36 9.36 0 0 1 2.48 1.43c1.57 1.3 2.27 3.03 2.27 5.26 0 3.67-1.94 6.32-5.13 7.16-.96.28-1.98.37-3.87.37h-9.64v-26.87h8.53c1.75 0 2.95.09 4.02.37 3.09.83 5.12 2.97 5.12 6.37 0 1.81-.65 3.35-1.71 4.37a6.47 6.47 0 0 1-2.08 1.44Zm-8.54 2.84v7.07h3.69c1.1 0 2.12-.1 2.86-.8a3.53 3.53 0 0 0 1.06-2.74c0-.88-.23-1.72-.7-2.32-.78-.98-1.74-1.21-3.4-1.21h-3.51Zm-.05-4.65h3c.92 0 1.38 0 1.85-.14 1.24-.38 2.03-1.49 2.03-3.03 0-1.8-.83-2.6-2.03-2.97a7.27 7.27 0 0 0-2.03-.19h-2.82v6.33Zm21.36 16.13v-22.36h-7.7v-4.51h21.4l-1.51 4.5h-6.83v22.37h-5.36Zm15.37 0v-26.87h17.35l-1.52 4.5h-10.52v5.96h4.29c3.46 0 5.26.84 6.5 1.9.97.84 2.63 2.7 2.63 6.38 0 3.62-1.7 5.62-3.13 6.65-1.67 1.16-3.42 1.48-6.97 1.48h-8.63Zm5.3-4.5h4.02c1.52 0 2.45-.38 3.1-1.22.31-.41.78-1.16.78-2.55 0-1.4-.47-2.38-1.39-3.07-.55-.42-1.29-.65-2.54-.65h-3.96v7.48Z" fill="#0D1627"/></g></svg>