<svg viewBox="0 0 85 30" fill="none" xmlns="http://www.w3.org/2000/svg"><path fill-rule="evenodd" clip-rule="evenodd" d="M40.65.46c2.62-1.03 5.48-.27 6.39 1.7.9 1.99-.49 4.42-3.1 5.46-2.63 1.03-5.5.26-6.4-1.71-.9-1.98.49-4.42 3.11-5.45Zm.5 28.77 4.07-19.23h-8.07l-4.07 19.23h8.07Zm2.4-2.63c2.37 2.18 6.41 3.4 9.1 3.4 5.67 0 9.18-3.6 9.17-6.95 0-4.16-4.2-5.55-6.2-6.1-1.43-.4-1.92-.71-1.92-1.08 0-.63.78-.8 1.5-.8 1.5 0 4.13.98 5.41 1.78l3.45-4.94a14.09 14.09 0 0 0-8.29-2.68c-2.35 0-5.04.79-6.77 2.26a6.65 6.65 0 0 0-2.56 4.96c0 3.16 3.34 4.55 5.35 5.23.97.33 2.08.73 2.08 1.31 0 .52-.59.8-1.35.8-1.4 0-3.77-.8-5.39-1.94l-3.58 4.75Zm-14.26-16.6a7.52 7.52 0 0 0-6.5 3.88h-.25c-.28-2.3-2-3.87-4.28-3.87a7.5 7.5 0 0 0-6.48 3.87h-.27l.82-3.78h-8.2l-4.13 19.13h8.2l2.28-10.53c.34-1.58 1.22-2.13 1.99-2.13.72-.02 1.5.6 1.22 1.89l-2.33 10.77h8.2l2.27-10.55c.35-1.57 1.22-2.12 2-2.12.71-.03 1.5.6 1.22 1.88l-2.34 10.8h8.2l2.87-13.34c.73-3.37-1.6-5.9-4.5-5.9Zm44.9 3.73a7.5 7.5 0 0 1 6.48-3.9c2.9 0 4.9 2.54 4.18 5.95l-2.88 13.45h-8.2l2.33-10.88c.28-1.3-.5-1.93-1.22-1.9-.78 0-1.65.55-2 2.14-.33 1.6-2.28 10.64-2.28 10.64h-8.21l5.92-27.7h8.22l-2.61 12.2h.26Z" fill="#fff"/></svg>