<svg viewBox="0 0 127 28" fill="none" xmlns="http://www.w3.org/2000/svg"><g clip-path="url(#a)" fill="#0D1627"><path d="M7.87 4.2c4.4 0 7.26 1.8 7.26 5.32v.32h-3.8v-.35c0-1.96-1.54-2.55-3.46-2.55h-.52c-1.97 0-3.3.53-3.3 1.95s1.27 1.8 4.61 2.24c4.86.7 6.69 2.07 6.69 4.69v.22c0 3.05-2.74 4.72-7.39 4.72h-.51c-4.62 0-7.45-1.67-7.45-5.36v-.25h3.77v.31c0 1.83 1.4 2.52 3.68 2.52h.51c2.5 0 3.59-.63 3.59-1.89 0-1.4-1.25-1.86-4.8-2.33-4.2-.53-6.54-1.63-6.54-4.63v-.22c0-2.96 2.86-4.71 7.14-4.71h.52Zm14.31.27v2.1h.64c1.19-1.6 2.98-2.37 5.2-2.37h.52c3.95 0 6.81 2.4 6.81 7.46v1.64c0 5.07-2.86 7.46-6.8 7.46h-.52c-2.28 0-4.06-.82-5.2-2.42h-.65v9.66h-3.85v-23.53h3.85Zm0 7.15v1.7c0 2.8 1.74 4.22 4.4 4.22h.48c2.7 0 4.39-1.48 4.39-4.22v-1.7c0-2.77-1.69-4.25-4.39-4.25h-.47c-2.67 0-4.4 1.45-4.4 4.25Zm20.31-7.15v1.86h.63c.89-1.35 2.22-2.14 4.32-2.14 3.22 0 5.01 1.75 5.01 6.08v.93h-3.61v-.55c0-1.99-.98-3.12-3.13-3.12-2.22 0-3.22 1.13-3.22 3.12v9.8h-3.86v-15.98h3.86Zm22.25-.27c4.66 0 7.72 2.45 6.68 7.46l-.37 1.8h-13.2c-.6 2.93.76 4.35 3.55 4.35h.52c2.52 0 4.15-.92 4.95-2.59h3.63c-1.15 3.34-4.28 5.55-9.2 5.55h-.52c-4.67 0-7.7-2.43-6.66-7.44l.34-1.67c1.05-5.01 5.06-7.46 9.76-7.46h.52Zm-6.32 6.54h9.45c.3-2.33-1.18-3.62-3.71-3.62h-.53c-2.69 0-4.54 1.26-5.21 3.62Zm26.24-6.54c4.66 0 7.72 2.45 6.68 7.46l-.37 1.8h-13.2c-.6 2.93.75 4.35 3.55 4.35h.52c2.52 0 4.15-.92 4.95-2.59h3.63c-1.15 3.33-4.28 5.54-9.2 5.54h-.52c-4.66 0-7.69-2.43-6.65-7.44l.33-1.67c1.05-5 5.06-7.45 9.76-7.45h.52Zm-6.32 6.54h9.45c.3-2.33-1.18-3.62-3.73-3.62h-.52c-2.68 0-4.53 1.26-5.2 3.62Zm19.76-6.27v2.1h.67c.95-1.48 2.68-2.4 4.99-2.4h.48c3.65 0 5.9 2.15 5.9 6.69v9.58h-3.9v-8.91c0-2.62-1.3-4-3.8-4h-.47c-2.43 0-3.85 1.4-3.85 4v8.91h-3.88v-15.97h3.86Zm20.15-4.47v4.47h7.9v3h-7.9v7.58c0 1.67.82 2.58 2.33 2.58h.52c1.52 0 2.31-.91 2.31-2.58v-1.26h3.47v1.26c0 4-2.37 5.7-5.75 5.7h-.5c-3.56 0-6.24-1.7-6.24-5.7v-7.59h-2.4v-2.99h2.4v-4.47h3.86Z"/></g><defs><clipPath id="a"><path fill="#fff" d="M0 0h126.88v28h-126.88z"/></clipPath></defs></svg>