<svg viewBox="0 0 267 59" fill="none" xmlns="http://www.w3.org/2000/svg"><g clip-path="url(#a)" fill="#fff"><path d="M16.56 8.84c9.24 0 15.29 3.78 15.29 11.2v.66h-8v-.73c0-4.11-3.26-5.37-7.29-5.37h-1.08c-4.16 0-6.97 1.12-6.97 4.1 0 2.99 2.68 3.78 9.72 4.71 10.23 1.48 14.07 4.38 14.07 9.88v.46c0 6.43-5.76 9.94-15.54 9.94h-1.1c-9.71-.01-15.66-3.52-15.66-11.29v-.53h7.93v.67c0 3.84 2.94 5.3 7.74 5.3h1.09c5.24 0 7.54-1.33 7.54-3.98 0-2.94-2.62-3.9-10.1-4.9-8.83-1.12-13.75-3.44-13.75-9.74v-.46c0-6.24 6-9.92 15.03-9.92h1.08Zm30.13.57v4.42h1.34c2.5-3.36 6.27-5 10.95-5h1.09c8.31 0 14.32 5.05 14.32 15.72v3.44c0 10.67-6 15.7-14.32 15.7h-1.09c-4.8 0-8.53-1.72-10.94-5.1h-1.35v20.33h-8.13v-49.5h8.13Zm0 15.05v3.58c0 5.89 3.64 8.88 9.23 8.88h1.03c5.68 0 9.24-3.12 9.24-8.88v-3.58c0-5.83-3.56-8.95-9.24-8.95h-.99c-5.63 0-9.27 3.05-9.27 8.95Zm42.71-15.05v3.91h1.35c1.86-2.85 4.67-4.5 9.08-4.5 6.78 0 10.55 3.68 10.55 12.79v1.96h-7.6v-1.17c0-4.17-2.05-6.56-6.6-6.56-4.66 0-6.77 2.39-6.77 6.56v20.62h-8.12v-33.6h8.12Zm46.84-.57c9.82 0 16.24 5.15 14.06 15.7l-.8 3.78h-27.76c-1.28 6.17 1.6 9.15 7.47 9.15h1.1c5.3 0 8.72-1.92 10.42-5.43h7.63c-2.43 7.02-9 11.66-19.34 11.66h-1.11c-9.82 0-16.19-5.1-14-15.64l.7-3.51c2.21-10.56 10.65-15.71 20.53-15.71h1.1Zm-13.3 13.76h19.89c.63-4.9-2.5-7.62-7.82-7.62h-1.1c-5.66 0-9.56 2.65-10.98 7.62Zm55.22-13.76c9.81 0 16.24 5.15 14.06 15.7l-.78 3.78h-27.78c-1.27 6.17 1.59 9.15 7.47 9.15h1.1c5.3 0 8.73-1.92 10.42-5.43h7.63c-2.43 7-9 11.64-19.34 11.64h-1.1c-9.83 0-16.2-5.1-14.01-15.64l.7-3.52c2.22-10.53 10.65-15.68 20.53-15.68h1.1Zm-13.3 13.76h19.9c.62-4.9-2.5-7.62-7.86-7.62h-1.1c-5.63 0-9.52 2.65-10.94 7.62Zm41.58-13.19v4.42h1.42c1.99-3.11 5.63-5.04 10.5-5.04h1.01c7.67 0 12.4 4.51 12.4 14.05v20.18h-8.19v-18.76c0-5.5-2.75-8.42-8-8.42h-.98c-5.12 0-8.12 2.95-8.12 8.42v18.76h-8.16v-33.6h8.12Zm42.4-9.41v9.41h16.62v6.3h-16.62v15.96c0 3.51 1.73 5.43 4.92 5.43h1.1c3.2 0 4.85-1.92 4.85-5.43v-2.65h7.29v2.65c0 8.42-4.97 12-12.08 12h-1.08c-7.48 0-13.11-3.58-13.11-12v-15.96h-5.05v-6.3h5.05v-9.41h8.11Z"/></g><defs><clipPath id="a"><path fill="#fff" d="M0 0h267v58.92h-267z"/></clipPath></defs></svg>