<svg viewBox="0 0 16 19" fill="none" xmlns="http://www.w3.org/2000/svg"><path d="M8.49.09c.77 0 1.43.47 1.7 1.14a1.86 1.86 0 0 1 2.8 1.6v.97a1.85 1.85 0 0 1 2.66 1.68v7.08a5.4 5.4 0 0 1-5.4 5.4h-.88a5.38 5.38 0 0 1-4.1-1.9l-.07-.06-4.43-4.16a2.18 2.18 0 0 1-.19-2.97 2.1 2.1 0 0 1 2.87-.36l.53.39v-5.19a1.86 1.86 0 0 1 2.65-1.67v-.1c0-1.02.83-1.85 1.86-1.85Zm0 1.06a.8.8 0 0 0-.8.8v6.27h-1.06v-4.5a.8.8 0 0 0-1.6 0v7.28l-.13-.1-2.08-1.53a1.03 1.03 0 0 0-1.42.17c-.37.45-.33 1.12.1 1.52l4.42 4.16.1.08v.01c.8.97 2 1.58 3.35 1.58h.88c2.4 0 4.34-1.94 4.34-4.33v-7.08a.8.8 0 0 0-1.6 0v2.74h-1.06v-5.39a.8.8 0 0 0-1.59 0v5.4h-1.06v-6.28a.8.8 0 0 0-.8-.8Z" fill="#0039CC" stroke="#0039CC" stroke-width=".177"/><path d="M8.49 1.06c-.5 0-.89.4-.89.89v6.19h-.88v-4.43a.88.88 0 0 0-1.77 0v7.12l-2.08-1.54a1.12 1.12 0 0 0-1.54.2c-.4.48-.35 1.2.1 1.64l4.43 4.16.1.08a4.4 4.4 0 0 0 3.41 1.6h.88a4.42 4.42 0 0 0 4.43-4.41v-7.08a.88.88 0 0 0-1.77 0v2.66h-.89v-5.31a.88.88 0 0 0-1.77 0v5.3h-.88v-6.18c0-.5-.4-.89-.88-.89Z" fill="#fff"/></svg>