<svg viewBox="0 0 357 381" fill="none" xmlns="http://www.w3.org/2000/svg"><foreignObject x="12.48" y="34.49" width="425.275" height="566.772"><div xmlns="http://www.w3.org/1999/xhtml" style="backdrop-filter:blur(44.22px);clip-path:url(#a);height:100%;width:100%"/></foreignObject><g opacity=".13" filter="url(#b)" data-figma-bg-blur-radius="88.435"><rect x="131.769" y="122.925" width="217.551" height="359.048" rx="44.218" fill="url(#c)"/></g><g filter="url(#d)"><path d="m203 23-5.15-18.05 17.05 8.15-7.8 2.76-4.1 7.13Z" fill="#D9F243"/><path d="m198.05 4.55 17.04 8.15.96.46-1 .35-7.65 2.71-4.02 7-.52.9-.29-1-5.14-18.05-.27-.94.89.42Z" stroke="#D9F243" stroke-width=".884"/></g><path fill="#D9F243" d="M215.43 23.1h52.53v34.38h-52.53z"/><path stroke="#D9F243" stroke-width="1.769" d="M215.43 23.1h52.53v34.38h-52.53z"/><path d="M229.03 35h1.76l2.7 4.68h.1l2.7-4.68h1.75l-3.73 6.25v4.04h-1.55v-4.04l-3.73-6.25Zm12.34 10.45a3.35 3.35 0 0 1-3.15-1.89c-.3-.6-.45-1.3-.45-2.1s.15-1.5.45-2.1a3.35 3.35 0 0 1 3.15-1.89 3.35 3.35 0 0 1 3.15 1.9c.3.6.45 1.3.45 2.1s-.15 1.5-.45 2.09a3.35 3.35 0 0 1-3.15 1.89Zm0-1.26c.47 0 .86-.13 1.17-.38.3-.24.54-.57.69-.99.15-.4.22-.86.22-1.36 0-.49-.07-.94-.22-1.35a2.22 2.22 0 0 0-.69-1c-.3-.25-.7-.38-1.16-.38-.48 0-.87.13-1.18.38-.3.25-.54.58-.69 1-.15.4-.22.86-.22 1.35 0 .5.07.95.22 1.36.15.42.38.75.69 1 .31.24.7.37 1.18.37Zm10.16-2.1v-4.52h1.51v7.72h-1.48v-1.33h-.08c-.17.4-.46.75-.85 1.03-.39.27-.87.4-1.45.4-.5 0-.94-.1-1.32-.32a2.3 2.3 0 0 1-.9-.98 3.58 3.58 0 0 1-.31-1.6v-4.92h1.5v4.73c0 .53.14.95.44 1.26.29.31.66.47 1.13.47a1.84 1.84 0 0 0 1.54-.85c.19-.29.28-.65.27-1.09Z" fill="#0D1627"/><path stroke="#1859FF" stroke-width=".884" d="M131.33 122.48h218.43v304.22h-218.43z"/><path fill="#fff" stroke="#1859FF" stroke-width=".884" d="M125.14 116.3h13.26v13.26h-13.26zm217.55 0h13.26v13.26h-13.26z"/><g filter="url(#e)"><circle cx="135.748" cy="130.442" r="51.735" fill="#D1DEFF"/><circle cx="135.748" cy="130.442" r="51.292" stroke="#1859FF" stroke-width=".884"/></g><path d="M11.85 204.2c.77 0 1.43.47 1.7 1.14a1.86 1.86 0 0 1 2.8 1.6v.97c.25-.11.52-.17.8-.17 1.03 0 1.86.83 1.86 1.85v7.08a5.4 5.4 0 0 1-5.4 5.4h-.88a5.39 5.39 0 0 1-4.1-1.9l-.07-.06-4.43-4.17a2.18 2.18 0 0 1-.19-2.97 2.1 2.1 0 0 1 2.87-.35l.53.39v-5.19a1.86 1.86 0 0 1 2.65-1.67v-.1c0-1.02.83-1.85 1.86-1.85Zm0 1.06a.8.8 0 0 0-.8.8v6.27h-1.06v-4.5a.8.8 0 1 0-1.6 0v7.28l-.13-.1-2.08-1.53a1.03 1.03 0 0 0-1.42.17c-.37.45-.33 1.12.1 1.52l4.42 4.16.1.08v.01c.8.97 2 1.58 3.35 1.58h.88c2.4 0 4.34-1.94 4.34-4.33v-7.08a.8.8 0 0 0-1.6 0v2.74h-1.05v-5.4a.8.8 0 0 0-1.6 0v5.4h-1.06v-6.28a.8.8 0 0 0-.8-.8Z" fill="#0039CC" stroke="#0039CC" stroke-width=".177"/><path d="M11.85 205.17c-.5 0-.89.4-.89.89v6.19h-.88v-4.43a.88.88 0 0 0-1.77 0v7.12l-2.08-1.54a1.12 1.12 0 0 0-1.54.2c-.4.48-.35 1.2.1 1.64l4.43 4.16.1.08a4.41 4.41 0 0 0 3.41 1.6h.88a4.42 4.42 0 0 0 4.43-4.41v-7.08a.88.88 0 0 0-1.77 0v2.66h-.89v-5.31a.88.88 0 0 0-1.77 0v5.3h-.88v-6.19c0-.48-.4-.88-.88-.88Z" fill="#fff"/><path fill="#1859FF" d="M23.36 224.74h70.38v23.76h-70.38z"/><path stroke="#1859FF" stroke-width="1.769" d="M23.36 224.74h70.38v23.76h-70.38z"/><path d="M37.05 231.33h1.87v6.72a3.53 3.53 0 0 1-1.98 3.26c-.63.3-1.36.47-2.2.47-.84 0-1.57-.16-2.2-.47a3.53 3.53 0 0 1-1.46-1.31 3.63 3.63 0 0 1-.51-1.95v-6.72h1.86v6.57a2.1 2.1 0 0 0 1.08 1.93c.35.19.76.28 1.23.28s.88-.1 1.23-.28a2 2 0 0 0 .8-.79c.19-.33.28-.72.28-1.14v-6.57Zm5.45 0 2.27 3.77h.08l2.27-3.77h2.13l-3.17 5.14 3.22 5.15h-2.16l-2.3-3.74h-.07l-2.3 3.74h-2.14l3.25-5.15-3.21-5.14h2.13Zm11.72 10.29v-10.3h1.87v8.74h4.53v1.56h-6.4Zm11.35.15c-.77 0-1.44-.16-2-.48a3.26 3.26 0 0 1-1.3-1.38c-.3-.6-.45-1.3-.45-2.1s.16-1.5.46-2.1a3.42 3.42 0 0 1 3.2-1.9c.47 0 .92.07 1.34.22a3.16 3.16 0 0 1 1.9 1.92c.2.49.28 1.07.28 1.75v.56h-6.32v-1.23h4.58a1.76 1.76 0 0 0-.84-1.58 1.73 1.73 0 0 0-.92-.23c-.37 0-.7.09-.98.27a1.93 1.93 0 0 0-.89 1.65v1.07c0 .45.08.84.24 1.16.17.32.4.56.7.73a2 2 0 0 0 1.03.25c.26 0 .5-.03.72-.1.21-.09.4-.2.55-.34.16-.15.28-.33.36-.55l1.7.19c-.1.45-.31.84-.61 1.17a3 3 0 0 1-1.15.78c-.46.18-1 .27-1.6.27Zm7.2 0a3.2 3.2 0 0 1-1.33-.26c-.39-.17-.7-.44-.92-.78a2.3 2.3 0 0 1-.34-1.28c0-.43.08-.8.24-1.08.16-.28.38-.5.66-.68.28-.17.6-.3.94-.39.35-.09.72-.15 1.1-.2l1.1-.12c.27-.04.48-.1.6-.18.14-.08.2-.21.2-.39v-.03c0-.38-.11-.67-.34-.88-.22-.2-.54-.3-.97-.3-.44 0-.8.09-1.06.28-.25.2-.43.43-.52.7l-1.7-.25a2.71 2.71 0 0 1 1.8-1.89 4.82 4.82 0 0 1 2.59-.11c.36.09.7.23 1 .43.31.2.55.47.74.81.19.34.28.77.28 1.28v5.17h-1.75v-1.06h-.06a2.23 2.23 0 0 1-1.22 1.05 3 3 0 0 1-1.05.16Zm.47-1.33c.36 0 .68-.07.95-.22a1.62 1.62 0 0 0 .84-1.37v-.9a.87.87 0 0 1-.3.12 13.25 13.25 0 0 1-.95.19l-.42.06a3 3 0 0 0-.73.18c-.22.08-.38.2-.5.35a.86.86 0 0 0-.2.57c0 .34.13.6.37.76.25.17.56.26.94.26Zm8.3 1.31c-.61 0-1.16-.15-1.64-.46a3.17 3.17 0 0 1-1.13-1.36 5.06 5.06 0 0 1-.42-2.16c0-.86.14-1.58.42-2.17.29-.6.67-1.04 1.16-1.34a2.96 2.96 0 0 1 2.72-.23c.3.15.53.34.7.55.17.21.3.41.4.6h.07v-3.85h1.82v10.29h-1.79v-1.22h-.1c-.1.2-.24.39-.41.6a2.24 2.24 0 0 1-1.8.75Zm.5-1.49c.39 0 .71-.1.99-.3a2 2 0 0 0 .61-.89c.14-.37.21-.81.21-1.31s-.07-.93-.2-1.3a1.85 1.85 0 0 0-.62-.86c-.27-.2-.6-.3-.99-.3-.4 0-.74.1-1.01.3-.28.22-.48.51-.62.88a4.08 4.08 0 0 0 0 2.58c.14.37.35.66.62.88.28.22.61.32 1.01.32Z" fill="#fff"/><path stroke="#1859FF" stroke-width=".884" d="M83.57 78.27h104.36v104.35h-104.36z"/><path fill="#fff" stroke="#1859FF" stroke-width=".884" d="M77.38 72.08h13.27v13.26h-13.27zm0 103.46h13.27v13.27h-13.27zm103.47 0h13.27v13.27h-13.27zm0-103.46h13.27v13.26h-13.27z"/><defs><filter id="b" x="12.48" y="34.49" width="425.275" height="566.772" filterUnits="userSpaceOnUse" color-interpolation-filters="sRGB"><feFlood flood-opacity="0" result="BackgroundImageFix"/><feColorMatrix in="SourceAlpha" values="0 0 0 0 0 0 0 0 0 0 0 0 0 0 0 0 0 0 127 0" result="hardAlpha"/><feMorphology radius="11.929" in="SourceAlpha" result="effect1_dropShadow_9409_670"/><feOffset dx="-59.644" dy="59.644"/><feGaussianBlur stdDeviation="35.787"/><feComposite in2="hardAlpha" operator="out"/><feColorMatrix values="0 0 0 0 0.0122179 0 0 0 0 0.0519824 0 0 0 0 0.154234 0 0 0 0.3 0"/><feBlend in2="BackgroundImageFix" result="effect1_dropShadow_9409_670"/><feBlend in="SourceGraphic" in2="effect1_dropShadow_9409_670" result="shape"/></filter><filter id="d" x="194.695" y="2.42" width="24.269" height="25.488" filterUnits="userSpaceOnUse" color-interpolation-filters="sRGB"><feFlood flood-opacity="0" result="BackgroundImageFix"/><feColorMatrix in="SourceAlpha" values="0 0 0 0 0 0 0 0 0 0 0 0 0 0 0 0 0 0 127 0" result="hardAlpha"/><feOffset dy=".884"/><feGaussianBlur stdDeviation=".884"/><feComposite in2="hardAlpha" operator="out"/><feColorMatrix values="0 0 0 0 0 0 0 0 0 0 0 0 0 0 0 0 0 0 0.08 0"/><feBlend in2="BackgroundImageFix" result="effect1_dropShadow_9409_670"/><feBlend in="SourceGraphic" in2="effect1_dropShadow_9409_670" result="shape"/></filter><filter id="e" x="84.01" y="78.707" width="222.758" height="222.758" filterUnits="userSpaceOnUse" color-interpolation-filters="sRGB"><feFlood flood-opacity="0" result="BackgroundImageFix"/><feColorMatrix in="SourceAlpha" values="0 0 0 0 0 0 0 0 0 0 0 0 0 0 0 0 0 0 127 0" result="hardAlpha"/><feMorphology radius="11.929" in="SourceAlpha" result="effect1_dropShadow_9409_670"/><feOffset dx="59.641" dy="59.644"/><feGaussianBlur stdDeviation="35.787"/><feComposite in2="hardAlpha" operator="out"/><feColorMatrix values="0 0 0 0 0.115141 0 0 0 0 0.265285 0 0 0 0 0.651371 0 0 0 0.8 0"/><feBlend in2="BackgroundImageFix" result="effect1_dropShadow_9409_670"/><feBlend in="SourceGraphic" in2="effect1_dropShadow_9409_670" result="shape"/></filter><radialGradient id="c" cx="0" cy="0" r="1" gradientUnits="userSpaceOnUse" gradientTransform="rotate(56.712 -80.713 289.53) scale(261.838)"><stop stop-color="#ECF1FE"/><stop offset="1" stop-color="#B1C6E7"/></radialGradient><clipPath id="a" transform="translate(-12.48 -34.49)"><rect x="131.769" y="122.925" width="217.551" height="359.048" rx="44.218"/></clipPath></defs></svg>